<mxfile host="65bd71144e">
    <diagram id="9NxstFvH284EXf1doNHl" name="Page-1">
        <mxGraphModel dx="853" dy="846" grid="1" gridSize="10" guides="1" tooltips="1" connect="1" arrows="1" fold="1" page="1" pageScale="1" pageWidth="827" pageHeight="1169" math="0" shadow="0">
            <root>
                <mxCell id="0"/>
                <mxCell id="1" parent="0"/>
                <mxCell id="3" value="" style="html=1;verticalLabelPosition=bottom;align=center;labelBackgroundColor=#ffffff;verticalAlign=top;strokeWidth=2;strokeColor=#0080F0;shadow=0;dashed=0;shape=mxgraph.ios7.icons.book;" vertex="1" parent="1">
                    <mxGeometry x="380" y="260" width="150" height="115.5" as="geometry"/>
                </mxCell>
                <mxCell id="4" value="book_id" style="ellipse;shape=cloud;whiteSpace=wrap;html=1;" vertex="1" parent="1">
                    <mxGeometry x="234" y="340" width="120" height="80" as="geometry"/>
                </mxCell>
                <mxCell id="5" value="title" style="ellipse;shape=cloud;whiteSpace=wrap;html=1;" vertex="1" parent="1">
                    <mxGeometry x="200" y="230" width="120" height="80" as="geometry"/>
                </mxCell>
                <mxCell id="6" value="author" style="ellipse;shape=cloud;whiteSpace=wrap;html=1;" vertex="1" parent="1">
                    <mxGeometry x="282" y="130" width="120" height="80" as="geometry"/>
                </mxCell>
                <mxCell id="7" value="description" style="ellipse;shape=cloud;whiteSpace=wrap;html=1;" vertex="1" parent="1">
                    <mxGeometry x="594" y="260" width="120" height="80" as="geometry"/>
                </mxCell>
                <mxCell id="8" value="chapters" style="ellipse;shape=cloud;whiteSpace=wrap;html=1;" vertex="1" parent="1">
                    <mxGeometry x="430" y="140" width="120" height="80" as="geometry"/>
                </mxCell>
                <mxCell id="9" value="purchased" style="ellipse;shape=cloud;whiteSpace=wrap;html=1;" vertex="1" parent="1">
                    <mxGeometry x="570" y="160" width="120" height="80" as="geometry"/>
                </mxCell>
                <mxCell id="10" value="read" style="ellipse;shape=cloud;whiteSpace=wrap;html=1;" vertex="1" parent="1">
                    <mxGeometry x="558" y="350" width="120" height="80" as="geometry"/>
                </mxCell>
                <mxCell id="11" value="genre" style="ellipse;shape=cloud;whiteSpace=wrap;html=1;" vertex="1" parent="1">
                    <mxGeometry x="402" y="400" width="120" height="80" as="geometry"/>
                </mxCell>
                <mxCell id="VKfJsAfi58LwLJw5e9xL-12" value="" style="sketch=0;pointerEvents=1;shadow=0;dashed=0;html=1;strokeColor=#001DBC;fillColor=#0050ef;labelPosition=center;verticalLabelPosition=bottom;verticalAlign=top;outlineConnect=0;align=center;shape=mxgraph.office.concepts.pin;fontColor=#ffffff;" vertex="1" parent="1">
                    <mxGeometry x="210" y="650" width="24" height="44" as="geometry"/>
                </mxCell>
                <mxCell id="VKfJsAfi58LwLJw5e9xL-13" value="location_id" style="ellipse;shape=cloud;whiteSpace=wrap;html=1;" vertex="1" parent="1">
                    <mxGeometry x="50" y="585" width="120" height="80" as="geometry"/>
                </mxCell>
                <mxCell id="AjPqH36Vj3178GDOuISv-11" value="adress" style="ellipse;shape=cloud;whiteSpace=wrap;html=1;" vertex="1" parent="1">
                    <mxGeometry x="140" y="510" width="120" height="80" as="geometry"/>
                </mxCell>
                <mxCell id="AjPqH36Vj3178GDOuISv-12" value="zip" style="ellipse;shape=cloud;whiteSpace=wrap;html=1;" vertex="1" parent="1">
                    <mxGeometry x="270" y="545" width="120" height="80" as="geometry"/>
                </mxCell>
                <mxCell id="afX-RuqQk8BmnGGB_9x1-11" value="" style="shape=mxgraph.cisco.people.androgenous_person;html=1;pointerEvents=1;dashed=0;fillColor=#0050ef;strokeColor=#001DBC;strokeWidth=2;verticalLabelPosition=bottom;verticalAlign=top;align=center;outlineConnect=0;fontColor=#ffffff;" vertex="1" parent="1">
                    <mxGeometry x="609" y="612" width="69" height="82" as="geometry"/>
                </mxCell>
                <mxCell id="afX-RuqQk8BmnGGB_9x1-12" value="owner_id" style="ellipse;shape=cloud;whiteSpace=wrap;html=1;" vertex="1" parent="1">
                    <mxGeometry x="474" y="590" width="120" height="80" as="geometry"/>
                </mxCell>
                <mxCell id="afX-RuqQk8BmnGGB_9x1-13" value="fName" style="ellipse;shape=cloud;whiteSpace=wrap;html=1;" vertex="1" parent="1">
                    <mxGeometry x="540" y="510" width="120" height="80" as="geometry"/>
                </mxCell>
                <mxCell id="urf2nvcp7YCn_GNeYtgR-11" value="lName" style="ellipse;shape=cloud;whiteSpace=wrap;html=1;" vertex="1" parent="1">
                    <mxGeometry x="678" y="550" width="120" height="80" as="geometry"/>
                </mxCell>
            </root>
        </mxGraphModel>
    </diagram>
    <diagram id="-jC3xOtd37J_SN4_oQJF" name="Page-2">
        <mxGraphModel dx="853" dy="846" grid="1" gridSize="10" guides="1" tooltips="1" connect="1" arrows="1" fold="1" page="1" pageScale="1" pageWidth="827" pageHeight="1169" math="0" shadow="0">
            <root>
                <mxCell id="iR01km-0sqNDZLgaSOdG-0"/>
                <mxCell id="iR01km-0sqNDZLgaSOdG-1" parent="iR01km-0sqNDZLgaSOdG-0"/>
                <mxCell id="eirllRm_Po4OTcjVNEwi-20" style="edgeStyle=none;html=1;exitX=0.5;exitY=1;exitDx=0;exitDy=0;entryX=0.5;entryY=0;entryDx=0;entryDy=0;endArrow=ERone;endFill=0;" edge="1" parent="iR01km-0sqNDZLgaSOdG-1" source="htg9aAoqaMm_4eRdVR3d-0" target="htg9aAoqaMm_4eRdVR3d-2">
                    <mxGeometry relative="1" as="geometry"/>
                </mxCell>
                <mxCell id="eirllRm_Po4OTcjVNEwi-21" style="edgeStyle=none;html=1;exitX=0;exitY=0.5;exitDx=0;exitDy=0;entryX=1;entryY=0.5;entryDx=0;entryDy=0;endArrow=none;endFill=0;" edge="1" parent="iR01km-0sqNDZLgaSOdG-1" source="htg9aAoqaMm_4eRdVR3d-0" target="eirllRm_Po4OTcjVNEwi-8">
                    <mxGeometry relative="1" as="geometry"/>
                </mxCell>
                <mxCell id="eirllRm_Po4OTcjVNEwi-22" style="edgeStyle=none;html=1;exitX=0;exitY=0.25;exitDx=0;exitDy=0;entryX=0.95;entryY=0.763;entryDx=0;entryDy=0;entryPerimeter=0;endArrow=none;endFill=0;" edge="1" parent="iR01km-0sqNDZLgaSOdG-1" source="htg9aAoqaMm_4eRdVR3d-0" target="eirllRm_Po4OTcjVNEwi-9">
                    <mxGeometry relative="1" as="geometry"/>
                </mxCell>
                <mxCell id="eirllRm_Po4OTcjVNEwi-23" style="edgeStyle=none;html=1;exitX=0.25;exitY=0;exitDx=0;exitDy=0;entryX=1;entryY=1;entryDx=0;entryDy=0;endArrow=none;endFill=0;" edge="1" parent="iR01km-0sqNDZLgaSOdG-1" source="htg9aAoqaMm_4eRdVR3d-0" target="eirllRm_Po4OTcjVNEwi-10">
                    <mxGeometry relative="1" as="geometry"/>
                </mxCell>
                <mxCell id="eirllRm_Po4OTcjVNEwi-24" style="edgeStyle=none;html=1;exitX=0.5;exitY=0;exitDx=0;exitDy=0;endArrow=none;endFill=0;" edge="1" parent="iR01km-0sqNDZLgaSOdG-1" source="htg9aAoqaMm_4eRdVR3d-0" target="eirllRm_Po4OTcjVNEwi-12">
                    <mxGeometry relative="1" as="geometry"/>
                </mxCell>
                <mxCell id="eirllRm_Po4OTcjVNEwi-25" style="edgeStyle=none;html=1;exitX=0.75;exitY=0;exitDx=0;exitDy=0;entryX=0;entryY=1;entryDx=0;entryDy=0;endArrow=none;endFill=0;" edge="1" parent="iR01km-0sqNDZLgaSOdG-1" source="htg9aAoqaMm_4eRdVR3d-0" target="eirllRm_Po4OTcjVNEwi-11">
                    <mxGeometry relative="1" as="geometry"/>
                </mxCell>
                <mxCell id="eirllRm_Po4OTcjVNEwi-26" style="edgeStyle=none;html=1;exitX=1;exitY=0.25;exitDx=0;exitDy=0;entryX=0;entryY=1;entryDx=0;entryDy=0;endArrow=none;endFill=0;" edge="1" parent="iR01km-0sqNDZLgaSOdG-1" source="htg9aAoqaMm_4eRdVR3d-0" target="eirllRm_Po4OTcjVNEwi-13">
                    <mxGeometry relative="1" as="geometry"/>
                </mxCell>
                <mxCell id="eirllRm_Po4OTcjVNEwi-27" style="edgeStyle=none;html=1;exitX=1;exitY=0.5;exitDx=0;exitDy=0;entryX=0;entryY=0.5;entryDx=0;entryDy=0;endArrow=none;endFill=0;" edge="1" parent="iR01km-0sqNDZLgaSOdG-1" source="htg9aAoqaMm_4eRdVR3d-0" target="eirllRm_Po4OTcjVNEwi-14">
                    <mxGeometry relative="1" as="geometry"/>
                </mxCell>
                <mxCell id="eirllRm_Po4OTcjVNEwi-28" style="edgeStyle=none;html=1;exitX=1;exitY=0.75;exitDx=0;exitDy=0;entryX=0;entryY=0;entryDx=0;entryDy=0;endArrow=none;endFill=0;" edge="1" parent="iR01km-0sqNDZLgaSOdG-1" source="htg9aAoqaMm_4eRdVR3d-0" target="eirllRm_Po4OTcjVNEwi-16">
                    <mxGeometry relative="1" as="geometry"/>
                </mxCell>
                <mxCell id="htg9aAoqaMm_4eRdVR3d-0" value="book" style="rounded=0;whiteSpace=wrap;html=1;" vertex="1" parent="iR01km-0sqNDZLgaSOdG-1">
                    <mxGeometry x="354" y="150" width="120" height="60" as="geometry"/>
                </mxCell>
                <mxCell id="eirllRm_Po4OTcjVNEwi-17" style="edgeStyle=none;html=1;exitX=0.5;exitY=0;exitDx=0;exitDy=0;entryX=0.5;entryY=1;entryDx=0;entryDy=0;endArrow=ERmany;endFill=0;" edge="1" parent="iR01km-0sqNDZLgaSOdG-1" source="htg9aAoqaMm_4eRdVR3d-1" target="htg9aAoqaMm_4eRdVR3d-2">
                    <mxGeometry relative="1" as="geometry"/>
                </mxCell>
                <mxCell id="JOT-kGppih2utekKVV70-2" style="edgeStyle=none;html=1;exitX=0;exitY=0.25;exitDx=0;exitDy=0;entryX=1;entryY=0.5;entryDx=0;entryDy=0;startArrow=none;startFill=0;endArrow=none;endFill=0;" edge="1" parent="iR01km-0sqNDZLgaSOdG-1" source="htg9aAoqaMm_4eRdVR3d-1" target="JOT-kGppih2utekKVV70-1">
                    <mxGeometry relative="1" as="geometry"/>
                </mxCell>
                <mxCell id="JOT-kGppih2utekKVV70-3" style="edgeStyle=none;html=1;exitX=0;exitY=1;exitDx=0;exitDy=0;entryX=1;entryY=0;entryDx=0;entryDy=0;startArrow=none;startFill=0;endArrow=none;endFill=0;" edge="1" parent="iR01km-0sqNDZLgaSOdG-1" source="htg9aAoqaMm_4eRdVR3d-1" target="JOT-kGppih2utekKVV70-0">
                    <mxGeometry relative="1" as="geometry"/>
                </mxCell>
                <mxCell id="htg9aAoqaMm_4eRdVR3d-1" value="owner" style="rounded=0;whiteSpace=wrap;html=1;" vertex="1" parent="iR01km-0sqNDZLgaSOdG-1">
                    <mxGeometry x="354" y="390" width="120" height="60" as="geometry"/>
                </mxCell>
                <mxCell id="htg9aAoqaMm_4eRdVR3d-2" value="own" style="rhombus;whiteSpace=wrap;html=1;" vertex="1" parent="iR01km-0sqNDZLgaSOdG-1">
                    <mxGeometry x="374" y="260" width="80" height="80" as="geometry"/>
                </mxCell>
                <mxCell id="eirllRm_Po4OTcjVNEwi-8" value="book_id" style="ellipse;whiteSpace=wrap;html=1;" vertex="1" parent="iR01km-0sqNDZLgaSOdG-1">
                    <mxGeometry x="170" y="155" width="90" height="50" as="geometry"/>
                </mxCell>
                <mxCell id="eirllRm_Po4OTcjVNEwi-9" value="title" style="ellipse;whiteSpace=wrap;html=1;" vertex="1" parent="iR01km-0sqNDZLgaSOdG-1">
                    <mxGeometry x="210" y="100" width="90" height="50" as="geometry"/>
                </mxCell>
                <mxCell id="eirllRm_Po4OTcjVNEwi-10" value="author" style="ellipse;whiteSpace=wrap;html=1;" vertex="1" parent="iR01km-0sqNDZLgaSOdG-1">
                    <mxGeometry x="280" y="50" width="90" height="50" as="geometry"/>
                </mxCell>
                <mxCell id="eirllRm_Po4OTcjVNEwi-11" value="description" style="ellipse;whiteSpace=wrap;html=1;" vertex="1" parent="iR01km-0sqNDZLgaSOdG-1">
                    <mxGeometry x="459" y="50" width="90" height="50" as="geometry"/>
                </mxCell>
                <mxCell id="eirllRm_Po4OTcjVNEwi-12" value="genre" style="ellipse;whiteSpace=wrap;html=1;" vertex="1" parent="iR01km-0sqNDZLgaSOdG-1">
                    <mxGeometry x="369" y="20" width="90" height="50" as="geometry"/>
                </mxCell>
                <mxCell id="eirllRm_Po4OTcjVNEwi-13" value="chapters" style="ellipse;whiteSpace=wrap;html=1;" vertex="1" parent="iR01km-0sqNDZLgaSOdG-1">
                    <mxGeometry x="540" y="100" width="90" height="50" as="geometry"/>
                </mxCell>
                <mxCell id="eirllRm_Po4OTcjVNEwi-14" value="purchased" style="ellipse;whiteSpace=wrap;html=1;" vertex="1" parent="iR01km-0sqNDZLgaSOdG-1">
                    <mxGeometry x="610" y="155" width="90" height="50" as="geometry"/>
                </mxCell>
                <mxCell id="eirllRm_Po4OTcjVNEwi-16" value="read" style="ellipse;whiteSpace=wrap;html=1;" vertex="1" parent="iR01km-0sqNDZLgaSOdG-1">
                    <mxGeometry x="540" y="220" width="90" height="50" as="geometry"/>
                </mxCell>
                <mxCell id="PUPyH2FY59Nrht4lukK8-1" style="edgeStyle=none;html=1;exitX=0.5;exitY=0;exitDx=0;exitDy=0;entryX=0.5;entryY=1;entryDx=0;entryDy=0;endArrow=none;endFill=0;" edge="1" parent="iR01km-0sqNDZLgaSOdG-1" source="PUPyH2FY59Nrht4lukK8-0" target="htg9aAoqaMm_4eRdVR3d-1">
                    <mxGeometry relative="1" as="geometry"/>
                </mxCell>
                <mxCell id="PUPyH2FY59Nrht4lukK8-0" value="owner_id" style="ellipse;whiteSpace=wrap;html=1;" vertex="1" parent="iR01km-0sqNDZLgaSOdG-1">
                    <mxGeometry x="369" y="520" width="90" height="50" as="geometry"/>
                </mxCell>
                <mxCell id="JOT-kGppih2utekKVV70-0" value="fName" style="ellipse;whiteSpace=wrap;html=1;" vertex="1" parent="iR01km-0sqNDZLgaSOdG-1">
                    <mxGeometry x="250" y="470" width="90" height="50" as="geometry"/>
                </mxCell>
                <mxCell id="JOT-kGppih2utekKVV70-1" value="lName" style="ellipse;whiteSpace=wrap;html=1;" vertex="1" parent="iR01km-0sqNDZLgaSOdG-1">
                    <mxGeometry x="230" y="380" width="90" height="50" as="geometry"/>
                </mxCell>
                <mxCell id="i_ZDPnyoaNr3PxbYfSJi-3" style="edgeStyle=none;html=1;exitX=0;exitY=0;exitDx=0;exitDy=0;startArrow=none;startFill=0;endArrow=none;endFill=0;" edge="1" parent="iR01km-0sqNDZLgaSOdG-1" source="6jq9dwmDUbcM02CbTwe6-0" target="i_ZDPnyoaNr3PxbYfSJi-2">
                    <mxGeometry relative="1" as="geometry"/>
                </mxCell>
                <mxCell id="i_ZDPnyoaNr3PxbYfSJi-4" style="edgeStyle=none;html=1;exitX=0;exitY=0.5;exitDx=0;exitDy=0;entryX=1;entryY=0.5;entryDx=0;entryDy=0;startArrow=none;startFill=0;endArrow=none;endFill=0;" edge="1" parent="iR01km-0sqNDZLgaSOdG-1" source="6jq9dwmDUbcM02CbTwe6-0" target="i_ZDPnyoaNr3PxbYfSJi-1">
                    <mxGeometry relative="1" as="geometry"/>
                </mxCell>
                <mxCell id="i_ZDPnyoaNr3PxbYfSJi-5" style="edgeStyle=none;html=1;exitX=0;exitY=1;exitDx=0;exitDy=0;entryX=1;entryY=0;entryDx=0;entryDy=0;startArrow=none;startFill=0;endArrow=none;endFill=0;" edge="1" parent="iR01km-0sqNDZLgaSOdG-1" source="6jq9dwmDUbcM02CbTwe6-0" target="i_ZDPnyoaNr3PxbYfSJi-0">
                    <mxGeometry relative="1" as="geometry"/>
                </mxCell>
                <mxCell id="i_ZDPnyoaNr3PxbYfSJi-7" style="edgeStyle=none;html=1;exitX=1;exitY=0.5;exitDx=0;exitDy=0;startArrow=none;startFill=0;endArrow=ERmany;endFill=0;" edge="1" parent="iR01km-0sqNDZLgaSOdG-1" source="6jq9dwmDUbcM02CbTwe6-0" target="i_ZDPnyoaNr3PxbYfSJi-6">
                    <mxGeometry relative="1" as="geometry"/>
                </mxCell>
                <mxCell id="6jq9dwmDUbcM02CbTwe6-0" value="location" style="rounded=0;whiteSpace=wrap;html=1;" vertex="1" parent="iR01km-0sqNDZLgaSOdG-1">
                    <mxGeometry x="120" y="270" width="120" height="60" as="geometry"/>
                </mxCell>
                <mxCell id="i_ZDPnyoaNr3PxbYfSJi-0" value="location_id" style="ellipse;whiteSpace=wrap;html=1;" vertex="1" parent="iR01km-0sqNDZLgaSOdG-1">
                    <mxGeometry x="30" y="340" width="90" height="50" as="geometry"/>
                </mxCell>
                <mxCell id="i_ZDPnyoaNr3PxbYfSJi-1" value="adress" style="ellipse;whiteSpace=wrap;html=1;" vertex="1" parent="iR01km-0sqNDZLgaSOdG-1">
                    <mxGeometry x="10" y="275" width="90" height="50" as="geometry"/>
                </mxCell>
                <mxCell id="i_ZDPnyoaNr3PxbYfSJi-2" value="zip" style="ellipse;whiteSpace=wrap;html=1;" vertex="1" parent="iR01km-0sqNDZLgaSOdG-1">
                    <mxGeometry x="40" y="210" width="90" height="50" as="geometry"/>
                </mxCell>
                <mxCell id="i_ZDPnyoaNr3PxbYfSJi-8" style="edgeStyle=none;html=1;exitX=1;exitY=0;exitDx=0;exitDy=0;entryX=0;entryY=1;entryDx=0;entryDy=0;startArrow=none;startFill=0;endArrow=ERone;endFill=0;" edge="1" parent="iR01km-0sqNDZLgaSOdG-1" source="i_ZDPnyoaNr3PxbYfSJi-6" target="htg9aAoqaMm_4eRdVR3d-0">
                    <mxGeometry relative="1" as="geometry"/>
                </mxCell>
                <mxCell id="i_ZDPnyoaNr3PxbYfSJi-6" value="stores" style="rhombus;whiteSpace=wrap;html=1;" vertex="1" parent="iR01km-0sqNDZLgaSOdG-1">
                    <mxGeometry x="260" y="205" width="80" height="80" as="geometry"/>
                </mxCell>
            </root>
        </mxGraphModel>
    </diagram>
    <diagram name="Page-3" id="VsSAowcV8y3x_G9l6srC">
        <mxGraphModel dx="1680" dy="846" grid="1" gridSize="10" guides="1" tooltips="1" connect="1" arrows="1" fold="1" page="1" pageScale="1" pageWidth="827" pageHeight="1169" math="0" shadow="0">
            <root>
                <mxCell id="gJXymKL5uKNoW7XNcauP-0"/>
                <mxCell id="gJXymKL5uKNoW7XNcauP-1" parent="gJXymKL5uKNoW7XNcauP-0"/>
                <mxCell id="gJXymKL5uKNoW7XNcauP-2" value="books" style="swimlane;fontStyle=0;childLayout=stackLayout;horizontal=1;startSize=26;fillColor=none;horizontalStack=0;resizeParent=1;resizeParentMax=0;resizeLast=0;collapsible=1;marginBottom=0;" vertex="1" parent="gJXymKL5uKNoW7XNcauP-1">
                    <mxGeometry x="60" y="140" width="140" height="286" as="geometry"/>
                </mxCell>
                <mxCell id="gJXymKL5uKNoW7XNcauP-3" value="+ book_id: int" style="text;strokeColor=none;fillColor=none;align=left;verticalAlign=top;spacingLeft=4;spacingRight=4;overflow=hidden;rotatable=0;points=[[0,0.5],[1,0.5]];portConstraint=eastwest;" vertex="1" parent="gJXymKL5uKNoW7XNcauP-2">
                    <mxGeometry y="26" width="140" height="26" as="geometry"/>
                </mxCell>
                <mxCell id="gJXymKL5uKNoW7XNcauP-4" value="+ title: string" style="text;strokeColor=none;fillColor=none;align=left;verticalAlign=top;spacingLeft=4;spacingRight=4;overflow=hidden;rotatable=0;points=[[0,0.5],[1,0.5]];portConstraint=eastwest;" vertex="1" parent="gJXymKL5uKNoW7XNcauP-2">
                    <mxGeometry y="52" width="140" height="26" as="geometry"/>
                </mxCell>
                <mxCell id="gJXymKL5uKNoW7XNcauP-5" value="+ author: string" style="text;strokeColor=none;fillColor=none;align=left;verticalAlign=top;spacingLeft=4;spacingRight=4;overflow=hidden;rotatable=0;points=[[0,0.5],[1,0.5]];portConstraint=eastwest;" vertex="1" parent="gJXymKL5uKNoW7XNcauP-2">
                    <mxGeometry y="78" width="140" height="26" as="geometry"/>
                </mxCell>
                <mxCell id="gJXymKL5uKNoW7XNcauP-6" value="+ genre: string" style="text;strokeColor=none;fillColor=none;align=left;verticalAlign=top;spacingLeft=4;spacingRight=4;overflow=hidden;rotatable=0;points=[[0,0.5],[1,0.5]];portConstraint=eastwest;" vertex="1" parent="gJXymKL5uKNoW7XNcauP-2">
                    <mxGeometry y="104" width="140" height="26" as="geometry"/>
                </mxCell>
                <mxCell id="gJXymKL5uKNoW7XNcauP-7" value="+ description: string" style="text;strokeColor=none;fillColor=none;align=left;verticalAlign=top;spacingLeft=4;spacingRight=4;overflow=hidden;rotatable=0;points=[[0,0.5],[1,0.5]];portConstraint=eastwest;" vertex="1" parent="gJXymKL5uKNoW7XNcauP-2">
                    <mxGeometry y="130" width="140" height="26" as="geometry"/>
                </mxCell>
                <mxCell id="gJXymKL5uKNoW7XNcauP-8" value="+ chapters: string" style="text;strokeColor=none;fillColor=none;align=left;verticalAlign=top;spacingLeft=4;spacingRight=4;overflow=hidden;rotatable=0;points=[[0,0.5],[1,0.5]];portConstraint=eastwest;" vertex="1" parent="gJXymKL5uKNoW7XNcauP-2">
                    <mxGeometry y="156" width="140" height="26" as="geometry"/>
                </mxCell>
                <mxCell id="gJXymKL5uKNoW7XNcauP-9" value="+ purchased: string" style="text;strokeColor=none;fillColor=none;align=left;verticalAlign=top;spacingLeft=4;spacingRight=4;overflow=hidden;rotatable=0;points=[[0,0.5],[1,0.5]];portConstraint=eastwest;" vertex="1" parent="gJXymKL5uKNoW7XNcauP-2">
                    <mxGeometry y="182" width="140" height="26" as="geometry"/>
                </mxCell>
                <mxCell id="gJXymKL5uKNoW7XNcauP-10" value="+ read: boolean" style="text;strokeColor=none;fillColor=none;align=left;verticalAlign=top;spacingLeft=4;spacingRight=4;overflow=hidden;rotatable=0;points=[[0,0.5],[1,0.5]];portConstraint=eastwest;" vertex="1" parent="gJXymKL5uKNoW7XNcauP-2">
                    <mxGeometry y="208" width="140" height="26" as="geometry"/>
                </mxCell>
                <mxCell id="gJXymKL5uKNoW7XNcauP-11" value="+ fk_owner_id: int" style="text;strokeColor=none;fillColor=none;align=left;verticalAlign=top;spacingLeft=4;spacingRight=4;overflow=hidden;rotatable=0;points=[[0,0.5],[1,0.5]];portConstraint=eastwest;" vertex="1" parent="gJXymKL5uKNoW7XNcauP-2">
                    <mxGeometry y="234" width="140" height="26" as="geometry"/>
                </mxCell>
                <mxCell id="gJXymKL5uKNoW7XNcauP-12" value="+ fk_location_id: int" style="text;strokeColor=none;fillColor=none;align=left;verticalAlign=top;spacingLeft=4;spacingRight=4;overflow=hidden;rotatable=0;points=[[0,0.5],[1,0.5]];portConstraint=eastwest;" vertex="1" parent="gJXymKL5uKNoW7XNcauP-2">
                    <mxGeometry y="260" width="140" height="26" as="geometry"/>
                </mxCell>
                <mxCell id="gJXymKL5uKNoW7XNcauP-13" value="owner" style="swimlane;fontStyle=0;childLayout=stackLayout;horizontal=1;startSize=26;fillColor=none;horizontalStack=0;resizeParent=1;resizeParentMax=0;resizeLast=0;collapsible=1;marginBottom=0;" vertex="1" parent="gJXymKL5uKNoW7XNcauP-1">
                    <mxGeometry x="290" y="140" width="140" height="104" as="geometry"/>
                </mxCell>
                <mxCell id="gJXymKL5uKNoW7XNcauP-14" value="+ owner_id: int" style="text;strokeColor=none;fillColor=none;align=left;verticalAlign=top;spacingLeft=4;spacingRight=4;overflow=hidden;rotatable=0;points=[[0,0.5],[1,0.5]];portConstraint=eastwest;" vertex="1" parent="gJXymKL5uKNoW7XNcauP-13">
                    <mxGeometry y="26" width="140" height="26" as="geometry"/>
                </mxCell>
                <mxCell id="gJXymKL5uKNoW7XNcauP-15" value="+ fName: string" style="text;strokeColor=none;fillColor=none;align=left;verticalAlign=top;spacingLeft=4;spacingRight=4;overflow=hidden;rotatable=0;points=[[0,0.5],[1,0.5]];portConstraint=eastwest;" vertex="1" parent="gJXymKL5uKNoW7XNcauP-13">
                    <mxGeometry y="52" width="140" height="26" as="geometry"/>
                </mxCell>
                <mxCell id="gJXymKL5uKNoW7XNcauP-16" value="+ lName: string" style="text;strokeColor=none;fillColor=none;align=left;verticalAlign=top;spacingLeft=4;spacingRight=4;overflow=hidden;rotatable=0;points=[[0,0.5],[1,0.5]];portConstraint=eastwest;" vertex="1" parent="gJXymKL5uKNoW7XNcauP-13">
                    <mxGeometry y="78" width="140" height="26" as="geometry"/>
                </mxCell>
                <mxCell id="gJXymKL5uKNoW7XNcauP-17" style="edgeStyle=none;html=1;exitX=0;exitY=0.5;exitDx=0;exitDy=0;entryX=1;entryY=0.5;entryDx=0;entryDy=0;endArrow=ERmany;endFill=0;startArrow=ERone;startFill=0;" edge="1" parent="gJXymKL5uKNoW7XNcauP-1" source="gJXymKL5uKNoW7XNcauP-14" target="gJXymKL5uKNoW7XNcauP-3">
                    <mxGeometry relative="1" as="geometry">
                        <Array as="points">
                            <mxPoint x="240" y="179"/>
                            <mxPoint x="250" y="179"/>
                        </Array>
                    </mxGeometry>
                </mxCell>
                <mxCell id="gJXymKL5uKNoW7XNcauP-18" value="location" style="swimlane;fontStyle=0;childLayout=stackLayout;horizontal=1;startSize=26;fillColor=none;horizontalStack=0;resizeParent=1;resizeParentMax=0;resizeLast=0;collapsible=1;marginBottom=0;" vertex="1" parent="gJXymKL5uKNoW7XNcauP-1">
                    <mxGeometry x="-130" y="140" width="140" height="104" as="geometry"/>
                </mxCell>
                <mxCell id="gJXymKL5uKNoW7XNcauP-19" value="+ location_id: int" style="text;strokeColor=none;fillColor=none;align=left;verticalAlign=top;spacingLeft=4;spacingRight=4;overflow=hidden;rotatable=0;points=[[0,0.5],[1,0.5]];portConstraint=eastwest;" vertex="1" parent="gJXymKL5uKNoW7XNcauP-18">
                    <mxGeometry y="26" width="140" height="26" as="geometry"/>
                </mxCell>
                <mxCell id="gJXymKL5uKNoW7XNcauP-20" value="+ adress: string" style="text;strokeColor=none;fillColor=none;align=left;verticalAlign=top;spacingLeft=4;spacingRight=4;overflow=hidden;rotatable=0;points=[[0,0.5],[1,0.5]];portConstraint=eastwest;" vertex="1" parent="gJXymKL5uKNoW7XNcauP-18">
                    <mxGeometry y="52" width="140" height="26" as="geometry"/>
                </mxCell>
                <mxCell id="gJXymKL5uKNoW7XNcauP-21" value="+ zip: int" style="text;strokeColor=none;fillColor=none;align=left;verticalAlign=top;spacingLeft=4;spacingRight=4;overflow=hidden;rotatable=0;points=[[0,0.5],[1,0.5]];portConstraint=eastwest;" vertex="1" parent="gJXymKL5uKNoW7XNcauP-18">
                    <mxGeometry y="78" width="140" height="26" as="geometry"/>
                </mxCell>
                <mxCell id="gJXymKL5uKNoW7XNcauP-23" style="edgeStyle=none;html=1;exitX=1;exitY=0.5;exitDx=0;exitDy=0;startArrow=none;startFill=0;endArrow=none;endFill=0;" edge="1" parent="gJXymKL5uKNoW7XNcauP-1" source="gJXymKL5uKNoW7XNcauP-12">
                    <mxGeometry relative="1" as="geometry">
                        <mxPoint x="200" y="413" as="targetPoint"/>
                    </mxGeometry>
                </mxCell>
                <mxCell id="RNaUJsR-DVk_5bMONtRh-0" style="edgeStyle=none;html=1;exitX=1;exitY=0.5;exitDx=0;exitDy=0;entryX=0;entryY=0.5;entryDx=0;entryDy=0;startArrow=ERone;startFill=0;endArrow=ERmany;endFill=0;" edge="1" parent="gJXymKL5uKNoW7XNcauP-1" source="gJXymKL5uKNoW7XNcauP-19" target="gJXymKL5uKNoW7XNcauP-3">
                    <mxGeometry relative="1" as="geometry"/>
                </mxCell>
            </root>
        </mxGraphModel>
    </diagram>
    <diagram id="Ysltn1Xqjg_114Hhejhh" name="Page-4">
        <mxGraphModel dx="853" dy="846" grid="1" gridSize="10" guides="1" tooltips="1" connect="1" arrows="1" fold="1" page="1" pageScale="1" pageWidth="827" pageHeight="1169" math="0" shadow="0">
            <root>
                <mxCell id="8uzTGBk1NfXG_RLf36IM-0"/>
                <mxCell id="8uzTGBk1NfXG_RLf36IM-1" parent="8uzTGBk1NfXG_RLf36IM-0"/>
                <mxCell id="8uzTGBk1NfXG_RLf36IM-2" value="books" style="swimlane;fontStyle=0;childLayout=stackLayout;horizontal=1;startSize=26;fillColor=none;horizontalStack=0;resizeParent=1;resizeParentMax=0;resizeLast=0;collapsible=1;marginBottom=0;" vertex="1" parent="8uzTGBk1NfXG_RLf36IM-1">
                    <mxGeometry x="60" y="140" width="140" height="286" as="geometry"/>
                </mxCell>
                <mxCell id="8uzTGBk1NfXG_RLf36IM-3" value="+ book_id: int" style="text;strokeColor=none;fillColor=none;align=left;verticalAlign=top;spacingLeft=4;spacingRight=4;overflow=hidden;rotatable=0;points=[[0,0.5],[1,0.5]];portConstraint=eastwest;" vertex="1" parent="8uzTGBk1NfXG_RLf36IM-2">
                    <mxGeometry y="26" width="140" height="26" as="geometry"/>
                </mxCell>
                <mxCell id="8uzTGBk1NfXG_RLf36IM-4" value="+ title: string" style="text;strokeColor=none;fillColor=none;align=left;verticalAlign=top;spacingLeft=4;spacingRight=4;overflow=hidden;rotatable=0;points=[[0,0.5],[1,0.5]];portConstraint=eastwest;" vertex="1" parent="8uzTGBk1NfXG_RLf36IM-2">
                    <mxGeometry y="52" width="140" height="26" as="geometry"/>
                </mxCell>
                <mxCell id="8uzTGBk1NfXG_RLf36IM-5" value="+ author: string" style="text;strokeColor=none;fillColor=none;align=left;verticalAlign=top;spacingLeft=4;spacingRight=4;overflow=hidden;rotatable=0;points=[[0,0.5],[1,0.5]];portConstraint=eastwest;" vertex="1" parent="8uzTGBk1NfXG_RLf36IM-2">
                    <mxGeometry y="78" width="140" height="26" as="geometry"/>
                </mxCell>
                <mxCell id="4H3EOQOVaQzsomSAoGdP-0" value="+ genre: string" style="text;strokeColor=none;fillColor=none;align=left;verticalAlign=top;spacingLeft=4;spacingRight=4;overflow=hidden;rotatable=0;points=[[0,0.5],[1,0.5]];portConstraint=eastwest;" vertex="1" parent="8uzTGBk1NfXG_RLf36IM-2">
                    <mxGeometry y="104" width="140" height="26" as="geometry"/>
                </mxCell>
                <mxCell id="4H3EOQOVaQzsomSAoGdP-1" value="+ description: string" style="text;strokeColor=none;fillColor=none;align=left;verticalAlign=top;spacingLeft=4;spacingRight=4;overflow=hidden;rotatable=0;points=[[0,0.5],[1,0.5]];portConstraint=eastwest;" vertex="1" parent="8uzTGBk1NfXG_RLf36IM-2">
                    <mxGeometry y="130" width="140" height="26" as="geometry"/>
                </mxCell>
                <mxCell id="4H3EOQOVaQzsomSAoGdP-2" value="+ chapters: string" style="text;strokeColor=none;fillColor=none;align=left;verticalAlign=top;spacingLeft=4;spacingRight=4;overflow=hidden;rotatable=0;points=[[0,0.5],[1,0.5]];portConstraint=eastwest;" vertex="1" parent="8uzTGBk1NfXG_RLf36IM-2">
                    <mxGeometry y="156" width="140" height="26" as="geometry"/>
                </mxCell>
                <mxCell id="4H3EOQOVaQzsomSAoGdP-3" value="+ purchased: string" style="text;strokeColor=none;fillColor=none;align=left;verticalAlign=top;spacingLeft=4;spacingRight=4;overflow=hidden;rotatable=0;points=[[0,0.5],[1,0.5]];portConstraint=eastwest;" vertex="1" parent="8uzTGBk1NfXG_RLf36IM-2">
                    <mxGeometry y="182" width="140" height="26" as="geometry"/>
                </mxCell>
                <mxCell id="4H3EOQOVaQzsomSAoGdP-4" value="+ read: boolean" style="text;strokeColor=none;fillColor=none;align=left;verticalAlign=top;spacingLeft=4;spacingRight=4;overflow=hidden;rotatable=0;points=[[0,0.5],[1,0.5]];portConstraint=eastwest;" vertex="1" parent="8uzTGBk1NfXG_RLf36IM-2">
                    <mxGeometry y="208" width="140" height="26" as="geometry"/>
                </mxCell>
                <mxCell id="SeeTeO7wtdPQes8pMEr3-4" value="+ fk_owner_id: int" style="text;strokeColor=none;fillColor=none;align=left;verticalAlign=top;spacingLeft=4;spacingRight=4;overflow=hidden;rotatable=0;points=[[0,0.5],[1,0.5]];portConstraint=eastwest;" vertex="1" parent="8uzTGBk1NfXG_RLf36IM-2">
                    <mxGeometry y="234" width="140" height="26" as="geometry"/>
                </mxCell>
                <mxCell id="4H3EOQOVaQzsomSAoGdP-5" value="+ fk_location_id: int" style="text;strokeColor=none;fillColor=none;align=left;verticalAlign=top;spacingLeft=4;spacingRight=4;overflow=hidden;rotatable=0;points=[[0,0.5],[1,0.5]];portConstraint=eastwest;" vertex="1" parent="8uzTGBk1NfXG_RLf36IM-2">
                    <mxGeometry y="260" width="140" height="26" as="geometry"/>
                </mxCell>
                <mxCell id="bdTRYASZzFCrLZtpjIcv-0" value="owner" style="swimlane;fontStyle=0;childLayout=stackLayout;horizontal=1;startSize=26;fillColor=none;horizontalStack=0;resizeParent=1;resizeParentMax=0;resizeLast=0;collapsible=1;marginBottom=0;" vertex="1" parent="8uzTGBk1NfXG_RLf36IM-1">
                    <mxGeometry x="290" y="140" width="140" height="104" as="geometry"/>
                </mxCell>
                <mxCell id="bdTRYASZzFCrLZtpjIcv-1" value="+ owner_id: int" style="text;strokeColor=none;fillColor=none;align=left;verticalAlign=top;spacingLeft=4;spacingRight=4;overflow=hidden;rotatable=0;points=[[0,0.5],[1,0.5]];portConstraint=eastwest;" vertex="1" parent="bdTRYASZzFCrLZtpjIcv-0">
                    <mxGeometry y="26" width="140" height="26" as="geometry"/>
                </mxCell>
                <mxCell id="bdTRYASZzFCrLZtpjIcv-2" value="+ fName: string" style="text;strokeColor=none;fillColor=none;align=left;verticalAlign=top;spacingLeft=4;spacingRight=4;overflow=hidden;rotatable=0;points=[[0,0.5],[1,0.5]];portConstraint=eastwest;" vertex="1" parent="bdTRYASZzFCrLZtpjIcv-0">
                    <mxGeometry y="52" width="140" height="26" as="geometry"/>
                </mxCell>
                <mxCell id="bdTRYASZzFCrLZtpjIcv-3" value="+ lName: string" style="text;strokeColor=none;fillColor=none;align=left;verticalAlign=top;spacingLeft=4;spacingRight=4;overflow=hidden;rotatable=0;points=[[0,0.5],[1,0.5]];portConstraint=eastwest;" vertex="1" parent="bdTRYASZzFCrLZtpjIcv-0">
                    <mxGeometry y="78" width="140" height="26" as="geometry"/>
                </mxCell>
                <mxCell id="bdTRYASZzFCrLZtpjIcv-5" style="edgeStyle=none;html=1;exitX=0;exitY=0.5;exitDx=0;exitDy=0;entryX=1;entryY=0.5;entryDx=0;entryDy=0;endArrow=ERmany;endFill=0;startArrow=ERone;startFill=0;" edge="1" parent="8uzTGBk1NfXG_RLf36IM-1" source="bdTRYASZzFCrLZtpjIcv-1" target="SeeTeO7wtdPQes8pMEr3-4">
                    <mxGeometry relative="1" as="geometry">
                        <Array as="points">
                            <mxPoint x="240" y="179"/>
                            <mxPoint x="240" y="387"/>
                        </Array>
                    </mxGeometry>
                </mxCell>
                <mxCell id="SeeTeO7wtdPQes8pMEr3-0" value="location" style="swimlane;fontStyle=0;childLayout=stackLayout;horizontal=1;startSize=26;fillColor=none;horizontalStack=0;resizeParent=1;resizeParentMax=0;resizeLast=0;collapsible=1;marginBottom=0;" vertex="1" parent="8uzTGBk1NfXG_RLf36IM-1">
                    <mxGeometry x="280" y="322" width="140" height="104" as="geometry"/>
                </mxCell>
                <mxCell id="SeeTeO7wtdPQes8pMEr3-1" value="+ location_id: int" style="text;strokeColor=none;fillColor=none;align=left;verticalAlign=top;spacingLeft=4;spacingRight=4;overflow=hidden;rotatable=0;points=[[0,0.5],[1,0.5]];portConstraint=eastwest;" vertex="1" parent="SeeTeO7wtdPQes8pMEr3-0">
                    <mxGeometry y="26" width="140" height="26" as="geometry"/>
                </mxCell>
                <mxCell id="SeeTeO7wtdPQes8pMEr3-2" value="+ adress: string" style="text;strokeColor=none;fillColor=none;align=left;verticalAlign=top;spacingLeft=4;spacingRight=4;overflow=hidden;rotatable=0;points=[[0,0.5],[1,0.5]];portConstraint=eastwest;" vertex="1" parent="SeeTeO7wtdPQes8pMEr3-0">
                    <mxGeometry y="52" width="140" height="26" as="geometry"/>
                </mxCell>
                <mxCell id="SeeTeO7wtdPQes8pMEr3-3" value="+ zip: int" style="text;strokeColor=none;fillColor=none;align=left;verticalAlign=top;spacingLeft=4;spacingRight=4;overflow=hidden;rotatable=0;points=[[0,0.5],[1,0.5]];portConstraint=eastwest;" vertex="1" parent="SeeTeO7wtdPQes8pMEr3-0">
                    <mxGeometry y="78" width="140" height="26" as="geometry"/>
                </mxCell>
                <mxCell id="SeeTeO7wtdPQes8pMEr3-5" style="edgeStyle=none;html=1;exitX=0;exitY=0.5;exitDx=0;exitDy=0;startArrow=ERone;startFill=0;endArrow=ERmany;endFill=0;entryX=1;entryY=0.5;entryDx=0;entryDy=0;" edge="1" parent="8uzTGBk1NfXG_RLf36IM-1" source="SeeTeO7wtdPQes8pMEr3-1" target="4H3EOQOVaQzsomSAoGdP-5">
                    <mxGeometry relative="1" as="geometry">
                        <mxPoint x="220" y="440" as="targetPoint"/>
                        <Array as="points">
                            <mxPoint x="260" y="360"/>
                            <mxPoint x="260" y="413"/>
                        </Array>
                    </mxGeometry>
                </mxCell>
                <mxCell id="SeeTeO7wtdPQes8pMEr3-6" style="edgeStyle=none;html=1;exitX=1;exitY=0.5;exitDx=0;exitDy=0;startArrow=none;startFill=0;endArrow=none;endFill=0;" edge="1" parent="8uzTGBk1NfXG_RLf36IM-1" source="4H3EOQOVaQzsomSAoGdP-5">
                    <mxGeometry relative="1" as="geometry">
                        <mxPoint x="200" y="413" as="targetPoint"/>
                    </mxGeometry>
                </mxCell>
            </root>
        </mxGraphModel>
    </diagram>
</mxfile>